<svg width="255" height="327" viewBox="0 0 255 327" fill="none" xmlns="http://www.w3.org/2000/svg">
<path d="M231.02 206.56C272.114 128.65 259.072 40.8334 201.892 10.4152C144.712 -20.003 65.0453 18.4963 23.952 96.4058C-17.1413 174.315 -4.10016 262.132 53.0802 292.551C110.26 322.969 189.927 284.47 231.02 206.56Z" fill="#97BEFC"/>
<path d="M98.2968 327C129.534 327 154.858 326.364 154.858 325.581C154.858 324.797 129.534 324.161 98.2968 324.161C67.059 324.161 41.7358 324.797 41.7358 325.581C41.7358 326.364 67.059 327 98.2968 327Z" fill="#3B2645"/>
<path d="M98.441 325.581C135.891 325.581 166.251 295.273 166.251 257.886C166.251 220.5 135.891 190.192 98.441 190.192C60.9908 190.192 30.6313 220.5 30.6313 257.886C30.6313 295.273 60.9908 325.581 98.441 325.581Z" fill="#FA9E97"/>
<path d="M86.5865 305.188C81.2506 305.188 75.9146 304.58 70.6364 303.305C51.9462 298.874 36.1691 287.055 26.2183 269.994C16.2675 252.962 13.3544 232.744 17.9692 213.076C22.5841 193.408 34.2078 176.665 50.7059 165.89C67.2041 155.114 86.5865 151.638 105.277 156.07C123.967 160.502 139.744 172.32 149.695 189.381C159.646 206.413 162.559 226.632 157.944 246.3C153.329 265.968 141.676 282.71 125.207 293.486C113.382 301.191 100.085 305.188 86.5865 305.188ZM89.4131 154.796C56.7341 154.796 26.6798 178.461 18.4884 213.22C13.9024 232.744 16.8155 252.788 26.6798 269.705C36.5441 286.621 52.2058 298.352 70.7517 302.755C76.0011 304.001 81.3082 304.609 86.5865 304.609C99.9696 304.609 113.151 300.67 124.89 292.993C141.244 282.305 152.781 265.678 157.396 246.155C161.982 226.632 159.069 206.587 149.204 189.671C139.34 172.755 123.678 161.023 105.132 156.62C99.8831 155.375 94.6048 154.796 89.4131 154.796Z" fill="white"/>
<path d="M63.8583 270.255C57.5417 270.255 51.7731 268.662 46.841 265.418C36.6018 258.698 31.237 245.808 31.785 229.094C32.333 212.41 38.6496 193.929 49.6099 177.042C60.5702 160.154 74.8475 146.859 89.8458 139.617C104.844 132.376 118.775 132.086 129.014 138.777C139.254 145.497 144.618 158.387 144.07 175.101C143.522 191.786 137.206 210.266 126.246 227.153C115.285 244.041 101.008 257.336 86.0097 264.578C78.2221 268.372 70.7229 270.255 63.8583 270.255ZM49.8118 177.158L49.9849 177.273C39.0534 194.103 32.7657 212.525 32.2177 229.094C31.6985 245.663 36.9767 258.408 47.0718 265.041C67.9829 278.742 103.344 261.623 125.871 226.922C148.397 192.22 149.695 152.826 128.784 139.154C107.873 125.453 72.5112 142.572 49.9849 177.273L49.8118 177.158Z" fill="white"/>
<path d="M57.8301 244.272C53.6768 244.272 50.2733 243.027 48.2831 240.42C45.6296 237.002 45.7161 231.788 48.5427 225.763C51.3405 219.767 56.4457 213.684 62.993 208.586L63.1084 208.731L62.993 208.586C76.5203 198.042 91.9513 195.204 97.3738 202.242C102.796 209.281 96.1912 223.562 82.6639 234.105C74.1264 240.681 64.8678 244.272 57.8301 244.272ZM63.2238 208.876C56.7341 213.916 51.6578 219.97 48.8888 225.908C46.1488 231.788 46.0334 236.857 48.6004 240.159C53.8787 247.024 69.05 244.128 82.4331 233.729C95.8162 223.33 102.364 209.281 97.0565 202.445C91.7494 195.609 76.578 198.477 63.2238 208.876Z" fill="white"/>
<g opacity="0.3">
<path opacity="0.3" d="M155.896 221.939C158.348 228.862 159.588 236.162 159.559 243.519C159.559 279.292 130.687 308.259 95.0952 308.259C61.8682 308.259 34.5251 283.029 31.0063 250.616C30.7467 253.02 30.6313 255.453 30.6313 257.886C30.6313 295.253 61.0029 325.58 98.441 325.58C135.879 325.58 166.251 295.282 166.251 257.915C166.279 245.17 162.674 232.686 155.896 221.939Z" fill="#543753"/>
</g>
<path d="M141.619 71.1411C141.619 71.1411 136.629 74.3564 131.899 82.1483C127.168 89.9402 122.121 97.2687 122.121 97.2687C122.121 97.2687 120.275 81.4821 121.14 79.3965C122.005 77.311 125.121 72.7053 125.842 71.1411C126.563 69.577 129.995 67.3466 130.024 66.4486C130.053 65.5507 129.678 62.7409 129.533 62.654C129.389 62.5671 127.659 63.2044 127.399 64.1313C127.197 64.7975 127.053 65.3769 127.053 65.3769C127.053 65.3769 124.717 66.6803 124.313 66.7093C123.909 66.7383 122.005 65.7245 121.977 65.5507C121.948 65.3769 123.563 61.6112 124.053 61.4085C124.544 61.2057 127.255 63.3203 127.774 63.3203C128.293 63.3203 129.389 62.6251 129.447 62.2195C129.505 61.814 126.072 58.2801 125.784 58.2512C125.495 58.2222 122.554 57.7008 122.15 57.9905C121.746 58.2801 119.554 60.1919 119.554 60.1919C119.554 60.1919 119.554 53.6166 119.554 52.2841C119.554 50.9517 119.265 46.8385 118.66 46.5488C118.054 46.3171 117.391 46.2591 116.756 46.346C116.468 46.4329 116.295 48.2578 116.295 48.2578C116.295 48.2578 114.766 48.0261 114.362 48.3447C113.958 48.6633 113.122 61.1188 113.122 61.2347C113.122 61.3506 110.959 58.7146 110.699 58.2222C110.439 57.7298 109.545 54.7173 109.142 54.6014C108.738 54.4856 107.584 54.3987 107.44 54.6883C107.296 54.978 108.219 59.3229 108.276 59.8153C108.334 60.3078 111.074 66.1589 111.218 67.0569C111.362 67.9549 111.939 75.4861 112.112 77.0213C112.285 78.5565 110.353 96.6025 109.92 104.134C109.488 111.665 109.863 118.414 110.324 119.109C110.786 119.804 114.564 122.267 116.583 121.253C118.602 120.239 124.169 115.865 129.476 110.767C134.783 105.669 141.042 98.9777 141.042 98.9777L141.619 71.1411Z" fill="#FFEDE5"/>
<path d="M122.092 97.2397C122.092 97.2397 122.611 101.295 122.813 104.945C122.813 104.945 123.938 101.498 123.39 95.3279L122.092 97.2397Z" fill="#DE835C"/>
<path d="M112.805 65.0002C112.776 65.0002 112.747 65.0002 112.718 64.9713C112.66 64.9133 112.66 64.8265 112.718 64.7685C113.583 63.7837 118.516 60.6553 118.717 60.5105C118.775 60.4815 118.862 60.4815 118.919 60.5684C118.948 60.6264 118.948 60.7133 118.862 60.7712C118.804 60.8002 113.756 64.0154 112.92 64.9713C112.891 65.0002 112.833 65.0002 112.805 65.0002Z" fill="#472938"/>
<path d="M116.583 59.4388C116.583 59.4388 116.554 59.4388 116.583 59.4388C116.496 59.4388 116.439 59.3809 116.439 59.294C116.439 59.2071 116.785 51.5021 116.698 50.1117C116.612 48.8082 116.208 48.4317 116.208 48.4317C116.15 48.3737 116.15 48.2868 116.179 48.2289C116.237 48.171 116.323 48.171 116.381 48.1999C116.439 48.2289 116.871 48.6634 116.958 50.0827C117.045 51.5021 116.698 59.0043 116.698 59.323C116.698 59.3809 116.641 59.4388 116.583 59.4388Z" fill="#472938"/>
<path d="M117.477 71.5177C117.448 71.5177 117.448 71.4887 117.477 71.5177C117.362 71.4887 117.333 71.4308 117.333 71.3439C117.939 67.9259 121.717 65.5217 121.861 65.4348C121.919 65.4058 122.006 65.4058 122.063 65.4927C122.092 65.5507 122.092 65.6376 122.006 65.6955C121.977 65.7245 118.169 68.1287 117.593 71.4308C117.593 71.4598 117.535 71.5177 117.477 71.5177Z" fill="#472938"/>
<path d="M144.82 323.119C144.936 323.727 146.291 325.726 153.127 326.334C159.963 326.942 168.327 324.451 172.452 323.988C175.913 323.611 180.326 322.308 181.653 321.873C181.883 321.815 182.056 321.584 182.056 321.323C182.056 320.917 182.028 320.251 181.999 319.44C176.403 319.527 168.5 321.613 159.011 322.916C151.858 323.901 147.041 322.018 144.936 320.888C144.82 321.641 144.791 322.366 144.82 323.119Z" fill="#3B2645"/>
<path d="M181.133 306.115C178.624 306.347 177.586 308.433 176.374 309.128C175.163 309.823 171.586 310.113 171.904 305.565C172.221 301.017 168.731 299.656 168.731 299.656C167.779 299.685 165.212 304.783 160.857 310.286C156.502 315.79 146.06 318.687 145.599 318.861C145.339 318.947 145.138 319.903 144.993 320.888C147.099 321.989 151.916 323.901 159.069 322.916C168.529 321.612 176.461 319.527 182.056 319.44C181.97 316.456 181.797 311.358 181.508 309.186C181.335 308.346 181.249 307.245 181.133 306.115Z" fill="#AB8DA8"/>
<path d="M171.904 305.594C171.615 310.142 175.163 309.852 176.374 309.157C177.586 308.462 178.653 306.376 181.133 306.144C180.903 303.219 180.73 300.09 180.73 300.09L168.702 299.685C168.731 299.685 172.192 301.075 171.904 305.594Z" fill="#FFEDE5"/>
<path d="M158.694 316.833C164.347 316.312 171.904 306.579 171.904 306.579C171.875 306.26 171.875 305.913 171.904 305.594C172.192 301.046 168.731 299.685 168.731 299.685C167.779 299.714 165.212 304.812 160.857 310.316C159.184 312.459 156.559 314.197 153.992 315.529C155.319 316.572 156.992 317.036 158.694 316.833Z" fill="#3B2645"/>
<path d="M124.63 321.381C125.121 322.916 128.264 323.466 135.216 323.466C142.167 323.466 145.484 311.069 148.31 308.549C151.137 306.058 156.992 297.484 156.992 296.006C156.992 295.572 156.127 294.5 154.886 293.168C153.646 295.832 150.877 301.191 146.81 305.044C143.436 308.259 143.292 319.063 134.898 321.062C130.976 321.989 127.313 320.946 124.544 319.585C124.428 320.193 124.486 320.801 124.63 321.381Z" fill="#3B2645"/>
<path d="M146.291 284.854C143.32 288.04 144.272 291.922 144.128 293.486C143.984 295.05 138.648 295.456 137.811 295.108C136.975 294.761 136.081 293.457 134.408 293.486C133.399 293.515 132.476 294.008 131.928 294.848C131.495 300.38 130.716 306.955 130.37 309.562C129.793 313.878 127.313 314.979 126.072 315.848C125.207 316.427 124.63 318.136 124.515 319.614C127.284 320.975 130.947 322.018 134.869 321.091C143.292 319.121 143.407 308.288 146.782 305.073C150.848 301.22 153.617 295.89 154.858 293.196C151.858 289.952 146.666 285.289 146.291 284.854Z" fill="#AB8DA8"/>
<path d="M134.379 293.457C136.081 293.428 136.946 294.732 137.783 295.079C138.619 295.427 143.955 295.021 144.099 293.457C144.243 291.893 143.292 288.012 146.262 284.825C145.743 284.188 143.955 280.857 143.955 280.857L132.1 286.737C132.302 288.127 132.158 291.256 131.87 294.819C132.447 293.979 133.398 293.486 134.379 293.457Z" fill="#FFEDE5"/>
<path d="M133.11 312.923C137.321 311.387 137.783 295.079 137.783 295.079C136.946 294.732 136.052 293.428 134.379 293.457C133.37 293.486 132.447 293.979 131.899 294.819C131.466 300.351 130.687 306.927 130.341 309.533C130.197 310.866 129.735 312.14 129.014 313.27C130.399 313.502 131.812 313.357 133.11 312.923Z" fill="#3B2645"/>
<path d="M182.893 132.608C182.893 132.608 198.122 158.503 198.122 171.625C198.122 184.747 185.027 228.631 184.797 234.54C184.566 240.449 189.21 253.368 187.739 266.403C186.268 279.438 180.73 300.062 180.73 300.062C180.73 300.062 173.288 301.191 168.702 299.656C168.702 299.656 168.5 260.899 165.789 245.055C163.078 229.21 160.972 195.638 160.972 195.638C160.972 195.638 133.139 225.85 132.245 230.861C131.351 235.872 136.456 239.174 138.879 254.295C141.301 269.415 143.984 280.886 143.984 280.886C143.984 280.886 138.504 287.374 132.129 286.766C132.129 286.766 108.392 233.092 109.747 226.082C111.103 219.072 138.561 167.454 139.571 161.342C140.58 155.23 141.301 147.467 142.571 139.502L182.893 132.608Z" fill="#AB8DA8"/>
<path d="M164.03 150.016C173.663 148.394 181.307 142.601 185.95 138.14C184.162 134.78 182.893 132.637 182.893 132.637L142.542 139.502C142.253 141.297 141.994 143.093 141.763 144.86C145.484 147.699 153.041 151.87 164.03 150.016Z" fill="#3B2645"/>
<g opacity="0.5">
<path opacity="0.5" d="M161.001 195.638V183.472C161.001 183.472 157.367 176.231 157.021 170.177L157.857 188.02L149.954 207.978L161.001 195.638Z" fill="#543753"/>
</g>
<path d="M142.57 123.107C143.407 127.249 142.57 139.502 142.57 139.502C142.57 139.502 144.589 144.049 155.434 145.845C166.279 147.641 182.893 132.608 182.893 132.608C181.335 129.074 181.076 125.019 181.191 121.89C156.992 118.154 142.57 123.107 142.57 123.107Z" fill="#FFEDE5"/>
<path d="M181.826 129.363C181.278 126.901 181.076 124.41 181.191 121.89C178.278 121.427 175.509 121.108 172.884 120.876L173.548 126.728L181.826 129.363Z" fill="#DE835C"/>
<path d="M156.703 92.4315C171.99 91.0411 176.634 77.9774 178.018 70.6779L173.923 69.5192L153.963 67.4916L148.108 68.9978C145.022 79.6864 143.407 93.6191 156.703 92.4315Z" fill="#FFEDE5"/>
<path d="M189.498 73.8351L183.383 72.155C179.518 105.582 186.787 104.684 186.787 104.684L188.806 99.3833L189.498 73.8351Z" fill="#FFEDE5"/>
<path d="M181.71 116.85C186.873 112.215 186.787 104.684 186.787 104.684C186.787 104.684 179.489 105.582 183.383 72.1551L178.018 70.6778C176.605 77.9773 171.961 91.0701 156.704 92.4315C143.407 93.6191 145.022 79.6863 148.137 69.0267L142.109 70.5909C142.109 70.5909 135.1 93.5612 134.898 101.874C134.754 107.204 137.927 114.417 140.263 118.907C155.925 112.215 181.71 116.85 181.71 116.85Z" fill="#AB8DA8"/>
<path d="M181.191 121.89C181.249 120.181 181.422 118.501 181.739 116.821C181.739 116.821 155.954 112.186 140.263 118.878C141.561 121.398 142.57 123.078 142.57 123.078C142.57 123.078 156.992 118.153 181.191 121.89Z" fill="#3B2645"/>
<path d="M183.383 72.1262C183.383 72.1262 186.21 87.9417 175.826 106.538L174.644 119.167L175.653 147.989C175.653 147.989 171.038 149.234 168.587 149.234C166.135 149.234 162.703 150.364 162.703 150.364L162.213 145.7L159.617 145.758C159.617 145.758 158.867 136.286 162.097 128.523C165.328 120.76 166.885 116.068 167.404 108.073C167.923 100.079 166.135 89.3611 172.048 73.0531L183.383 72.1262Z" fill="white"/>
<path d="M188.834 99.3833L187.104 92.8079L186.815 104.655L188.834 99.3833Z" fill="#DE835C"/>
<path d="M155.377 144.078C155.679 144.078 155.925 143.702 155.925 143.238C155.925 142.774 155.679 142.398 155.377 142.398C155.074 142.398 154.829 142.774 154.829 143.238C154.829 143.702 155.074 144.078 155.377 144.078Z" fill="#DE835C"/>
<path d="M154.944 58.3961C154.944 58.3961 155.059 70.3302 148.656 86.2037C142.253 102.077 141.734 107.668 143.234 123.078C144.734 138.488 141.042 150.798 141.042 150.798C141.042 150.798 123.967 154.361 117.189 145.121C117.189 145.121 125.553 125.772 129.303 102.657C133.052 79.5414 142.109 70.5329 142.109 70.5329C142.109 70.5329 143.84 65.5508 147.762 66.0721C147.762 66.1301 150.935 58.1933 154.944 58.3961Z" fill="white"/>
<path d="M133.6 135.475C133.514 135.475 133.456 135.417 133.456 135.33C132.302 113.78 138.532 94.1984 141.878 83.6836L142.109 82.9884C142.138 82.9015 142.224 82.8726 142.282 82.9015C142.369 82.9305 142.397 83.0174 142.369 83.0753L142.138 83.7705C138.792 94.2853 132.591 113.809 133.745 135.301C133.745 135.417 133.687 135.475 133.6 135.475Z" fill="#472938"/>
<path d="M143.609 78.6725H143.58C143.493 78.6435 143.465 78.5566 143.493 78.4987C145.887 70.2433 147.618 66.1301 147.647 66.1011C147.676 66.0142 147.762 65.9853 147.849 66.0142C147.935 66.0432 147.964 66.1301 147.935 66.217C147.906 66.246 146.176 70.3591 143.811 78.5856C143.724 78.6145 143.667 78.6725 143.609 78.6725Z" fill="#472938"/>
<path d="M133.11 96.4867H133.081C132.995 96.4577 132.966 96.3998 132.966 96.3129C135.475 86.5513 141.907 70.7067 141.965 70.5329C141.994 70.446 142.08 70.4171 142.167 70.446C142.253 70.475 142.282 70.5619 142.253 70.6488C142.196 70.7936 135.764 86.6382 133.254 96.3708C133.254 96.4288 133.197 96.4867 133.11 96.4867Z" fill="#472938"/>
<path d="M162.241 145.874C162.155 145.874 162.097 145.816 162.097 145.729C162.097 145.643 162.039 135.968 163.914 131.478C163.943 131.391 164.03 131.362 164.116 131.391C164.203 131.42 164.232 131.507 164.203 131.594C162.357 136.026 162.414 145.643 162.414 145.729C162.386 145.816 162.328 145.874 162.241 145.874Z" fill="#472938"/>
<path d="M165.241 144.223C165.155 144.223 165.097 144.165 165.097 144.078C165.097 143.991 164.78 135.91 166.51 129.827C168.241 123.802 168.702 113.519 168.702 113.432C168.702 113.345 168.76 113.287 168.846 113.287C168.933 113.287 168.991 113.345 168.991 113.432C168.991 113.548 168.529 123.831 166.799 129.914C165.068 135.939 165.385 143.991 165.385 144.049C165.385 144.136 165.328 144.223 165.241 144.223Z" fill="#472938"/>
<path d="M171.125 131.246C171.096 131.246 171.096 131.246 171.125 131.246C171.01 131.217 170.981 131.159 170.981 131.072C172.106 125.163 171.211 112.997 171.211 112.853C171.211 112.766 171.269 112.708 171.356 112.708C171.442 112.708 171.5 112.766 171.5 112.853C171.5 112.969 172.394 125.192 171.269 131.13C171.24 131.188 171.183 131.246 171.125 131.246Z" fill="#472938"/>
<path d="M173.259 107.899C173.144 107.87 173.115 107.812 173.115 107.726C173.144 107.61 174.932 96.5446 176.663 91.4466C176.692 91.3597 176.778 91.3307 176.836 91.3597C176.922 91.3886 176.951 91.4755 176.922 91.5335C175.221 96.6026 173.404 107.639 173.404 107.755C173.404 107.841 173.346 107.899 173.259 107.899Z" fill="#472938"/>
<path d="M171.125 106.683C171.067 106.683 171.01 106.625 170.981 106.567C170.981 106.509 170.029 101.614 171.269 92.779C171.269 92.6921 171.356 92.6342 171.442 92.6632C171.529 92.6632 171.587 92.7501 171.558 92.837C170.346 101.643 171.269 106.48 171.269 106.538C171.269 106.596 171.212 106.683 171.125 106.683Z" fill="#472938"/>
<path d="M173.75 49.1848L173.923 69.5191H153.762L155.694 51.3862L173.75 49.1848Z" fill="#FFEDE5"/>
<path d="M155.694 51.3862C155.694 51.3862 158.636 70.6488 173.836 59.3519L173.75 49.1848L155.694 51.3862Z" fill="#DE835C"/>
<path d="M152.451 48.2983C153.754 47.926 154.208 45.5037 153.467 42.888C152.726 40.2723 151.069 38.4537 149.766 38.826C148.464 39.1983 148.01 41.6206 148.751 44.2363C149.492 46.852 151.149 48.6706 152.451 48.2983Z" fill="#DE835C"/>
<path d="M173.779 51.0965C173.779 51.0965 173.721 56.0497 173.49 59.3519C173.49 59.3519 171.125 66.8542 172.192 73.835C173.259 80.8159 172.913 85.9719 171.24 88.463L173.115 87.565C173.115 87.565 182.72 87.6809 182.604 73.6323C182.604 73.6323 187.45 65.7534 180.182 56.5132C172.913 47.273 177.009 42.2328 177.009 42.2328C177.009 42.2328 174.009 43.7391 173.779 51.0965Z" fill="#3B2645"/>
<path d="M176.951 42.2039C176.951 42.2039 174.009 43.7391 173.75 51.0965C173.75 51.0965 173.692 56.0497 173.461 59.3519C174.615 56.2815 175.596 53.1531 176.403 49.9668C174.759 44.8977 176.951 42.2039 176.951 42.2039Z" fill="#3B2645"/>
<path d="M178.16 43.8038C178.942 41.2004 178.526 38.7713 177.23 38.3783C175.934 37.9853 174.248 39.7773 173.466 42.3807C172.683 44.9842 173.1 47.4133 174.396 47.8063C175.692 48.1993 177.377 46.4073 178.16 43.8038Z" fill="#FFEDE5"/>
<path d="M150.791 29.3429C150.791 29.3429 150.272 44.4053 152.262 50.72C154.252 57.0346 159.213 61.032 162.472 61.032C165.731 61.032 172.077 58.6567 174.557 48.5185C177.038 38.3803 176.749 25.6642 166.106 22.333C155.463 19.0019 150.791 25.9828 150.791 29.3429Z" fill="#FFEDE5"/>
<path d="M175.769 40.2342C175.769 40.2342 175.192 36.15 173 33.9196C170.808 31.6892 166.308 30.1829 167.145 26.6201C167.145 26.6201 164.26 28.3291 159.069 28.3291C153.877 28.3291 150.3 32.3843 150.819 39.2783L150.156 38.8149C150.156 38.8149 147.676 29.0243 150.704 24.2738C153.761 19.5233 160.972 16.5108 166.798 18.1619C172.625 19.813 179.172 23.7234 178.595 31.3705C178.422 33.8037 178.076 36.2079 177.557 38.5831C177.557 38.5542 175.884 38.8148 175.769 40.2342Z" fill="#3B2645"/>
<path d="M155.434 41.4218C154.973 41.4218 154.598 41.0742 154.569 40.6108L154.54 40.0894C154.54 39.6259 154.886 39.2494 155.348 39.2204C155.809 39.2204 156.184 39.568 156.213 40.0315L156.242 40.5528C156.242 41.0163 155.896 41.4218 155.434 41.4218Z" fill="#472938"/>
<path d="M168.327 41.8563C167.866 41.7983 167.548 41.3638 167.635 40.9004L167.721 40.379C167.779 39.9155 168.212 39.5969 168.673 39.6838C169.135 39.7417 169.452 40.1762 169.366 40.6397L169.279 41.1611C169.193 41.6245 168.76 41.9142 168.327 41.8563Z" fill="#472938"/>
<path d="M152.435 37.888C152.435 37.888 153.214 37.019 155.031 36.99C156.848 36.961 157.425 37.1348 157.54 36.5555C157.655 35.9762 153.762 34.4989 152.435 37.888Z" fill="#472938"/>
<path d="M171.385 37.6272C171.385 37.6272 170.519 36.8162 168.558 36.9031C166.597 36.99 166.02 37.1927 165.876 36.6424C165.731 36.092 169.856 34.3251 171.385 37.6272Z" fill="#472938"/>
<path d="M166.251 50.4303L158.636 50.1696C158.636 50.1696 159.04 55.4124 162.443 55.3255C165.847 55.2387 166.251 50.4303 166.251 50.4303Z" fill="white"/>
<path d="M161.982 48.142C161.491 48.142 161.03 48.0262 160.655 47.8524C160.338 47.6786 160.165 47.4468 160.078 47.1861C159.905 46.5199 160.251 44.8978 160.655 42.8702L160.799 42.2329C161.463 38.9597 159.674 38.0618 159.588 38.0328C159.501 38.0038 159.472 37.888 159.501 37.8011C159.53 37.7142 159.646 37.6852 159.732 37.7142C159.819 37.7431 161.838 38.757 161.116 42.2908L160.972 42.9281C160.568 44.8399 160.251 46.5199 160.395 47.0992C160.453 47.273 160.568 47.4179 160.799 47.5627C161.347 47.8524 162.213 47.9103 163.02 47.6496C163.107 47.6206 163.222 47.6786 163.251 47.7655C163.28 47.8524 163.222 47.9682 163.135 47.9972C162.761 48.0841 162.357 48.142 161.982 48.142Z" fill="#472938"/>
<path d="M189.498 73.835C189.498 73.835 195.526 74.1247 198.526 82.7566C201.525 91.3596 211.015 116.386 211.39 120.992C211.765 125.598 210.351 129.305 203.804 130.667C198.237 131.825 183.47 127.509 182.258 127.394C181.047 127.278 177.615 127.191 176.461 125.192C175.307 123.194 174.673 119.804 174.673 119.804C174.673 119.804 171.644 118.646 171.125 118.646C170.606 118.646 166.943 118.878 166.597 118.327C166.25 117.777 166.25 116.734 166.366 116.242C166.366 116.242 165.731 115.083 165.933 114.388C165.933 114.388 165.27 112.708 165.328 112.331C165.385 111.955 167.173 110.854 167.548 110.767C167.923 110.68 172.25 110.506 172.25 110.506C172.25 110.506 170.952 108.913 170.721 108.855C170.49 108.797 167.404 108.913 167.404 108.913L167.347 109.695C167.347 109.695 166.51 108.971 166.366 108.566C166.222 108.16 166.481 106.972 166.827 106.828C167.173 106.683 171.269 105.321 172.509 105.756C173.75 106.19 177.701 108.623 178.22 109.435C178.739 110.246 181.653 118.385 182.576 118.993C183.499 119.602 188.229 120.268 195.786 118.646L185.027 91.3306L189.498 73.835Z" fill="#FFEDE5"/>
</svg>
