<svg width="16" height="14" viewBox="0 0 16 14" fill="none" xmlns="http://www.w3.org/2000/svg">
<path d="M6.32046 8.77507C5.88921 8.34457 5.62671 7.75957 5.62671 7.10332C5.62671 5.78857 6.68571 4.72882 7.99971 4.72882C8.64996 4.72882 9.24846 4.99207 9.67221 5.42257" stroke="#ADA4A5" stroke-width="1.2" stroke-linecap="round" stroke-linejoin="round"/>
<path d="M10.3286 7.52417C10.1546 8.49167 9.39261 9.25517 8.42586 9.43067" stroke="#ADA4A5" stroke-width="1.2" stroke-linecap="round" stroke-linejoin="round"/>
<path d="M3.99096 11.1042C2.80071 10.1697 1.79271 8.80473 1.06221 7.10298C1.80021 5.39373 2.81496 4.02123 4.01271 3.07923C5.20296 2.13723 6.57621 1.62573 7.99971 1.62573C9.43146 1.62573 10.804 2.14473 12.0017 3.09348" stroke="#ADA4A5" stroke-width="1.2" stroke-linecap="round" stroke-linejoin="round"/>
<path d="M13.5857 4.7431C14.1017 5.4286 14.5555 6.21985 14.9372 7.1026C13.462 10.5204 10.855 12.5791 7.9997 12.5791C7.35245 12.5791 6.7142 12.4741 6.1007 12.2694" stroke="#ADA4A5" stroke-width="1.2" stroke-linecap="round" stroke-linejoin="round"/>
<path d="M13.9153 1.18719L2.08476 13.0177" stroke="#ADA4A5" stroke-width="1.2" stroke-linecap="round" stroke-linejoin="round"/>
</svg>
