<svg width="110" height="120" viewBox="0 0 110 120" fill="none" xmlns="http://www.w3.org/2000/svg">
<g filter="url(#filter0_d_803_3251)">
<rect x="40" y="30" width="40" height="40" rx="8" fill="#F7F8F8"/>
</g>
<path fill-rule="evenodd" clip-rule="evenodd" d="M58.1705 34.1921C54.3029 34.1921 51 34.6 51 36.2333C51 37.8667 54.2819 38.2891 58.1705 38.2891C62.0381 38.2891 65.34 37.8806 65.34 36.2479C65.34 34.6153 62.059 34.1921 58.1705 34.1921Z" stroke="#ADA4A5" stroke-width="1.2" stroke-linecap="round" stroke-linejoin="round"/>
<path fill-rule="evenodd" clip-rule="evenodd" d="M58.1705 31.8624C60.7086 31.8624 62.7657 30.427 62.7657 28.6568C62.7657 26.8867 60.7086 25.4519 58.1705 25.4519C55.6324 25.4519 53.5743 26.8867 53.5743 28.6568C53.5657 30.421 55.6095 31.8565 58.1381 31.8624H58.1705Z" stroke="#ADA4A5" stroke-width="1.2" stroke-linecap="round" stroke-linejoin="round"/>
<defs>
<filter id="filter0_d_803_3251" x="0" y="0" width="120" height="120" filterUnits="userSpaceOnUse" color-interpolation-filters="sRGB">
<feFlood flood-opacity="0" result="BackgroundImageFix"/>
<feColorMatrix in="SourceAlpha" type="matrix" values="0 0 0 0 0 0 0 0 0 0 0 0 0 0 0 0 0 0 127 0" result="hardAlpha"/>
<feOffset dy="10"/>
<feGaussianBlur stdDeviation="20"/>
<feColorMatrix type="matrix" values="0 0 0 0 0.113725 0 0 0 0 0.0862745 0 0 0 0 0.0901961 0 0 0 0.07 0"/>
<feBlend mode="normal" in2="BackgroundImageFix" result="effect1_dropShadow_803_3251"/>
<feBlend mode="normal" in="SourceGraphic" in2="effect1_dropShadow_803_3251" result="shape"/>
</filter>
</defs>
</svg>
